<svg xmlns="http://www.w3.org/2000/svg" width="261" height="259" fill="none" viewBox="0 0 261 259"><g filter="url(#filter0_f)"><ellipse cx="116.012" cy="144.174" fill="#9BEAEF" rx="56.679" ry="51.032" transform="rotate(37.3112 116.012 144.174)"/></g><g filter="url(#filter1_f)"><ellipse cx="140.161" cy="122.609" fill="#E2EBF9" fill-opacity=".4" rx="45.6" ry="52.353" transform="rotate(37.3112 140.161 122.609)"/></g><circle cx="133.238" cy="94.227" r="66.227" fill="#00E0CA" transform="rotate(90 133.238 94.2269)"/><circle cx="133.238" cy="94.227" r="66.227" fill="url(#paint0_linear)" transform="rotate(90 133.238 94.2269)"/><circle cx="133.238" cy="94.227" r="66.227" fill="url(#paint1_linear)" transform="rotate(90 133.238 94.2269)"/><circle cx="133.238" cy="94.227" r="66.227" fill="url(#paint2_linear)" transform="rotate(90 133.238 94.2269)"/><g style="mix-blend-mode:multiply" filter="url(#filter2_f)"><path fill="#00A1D3" d="M128.813 140.372C142.944 142.778 159.613 141.331 170.582 131.604C146.481 132.729 97.181 119.662 92.788 58.3952C73.4966 107.69 98.6121 135.229 128.813 140.372Z"/></g><g filter="url(#filter3_f)"><path fill="#C9FFFA" d="M162.172 53.3298C162.172 53.3298 170.088 54.031 176.042 61.8721C181.996 69.7132 184.919 89.2533 184.919 89.2533C184.919 89.2533 178.405 72.7194 173.169 64.2771C167.934 55.8349 162.172 53.3298 162.172 53.3298Z"/></g><g filter="url(#filter4_f)"><circle cx="175.186" cy="64.269" r="1.689" fill="#fff" transform="rotate(17.3802 175.186 64.2688)"/></g><defs><filter id="filter0_f" width="230.936" height="227.937" x=".544" y="30.206" color-interpolation-filters="sRGB" filterUnits="userSpaceOnUse"><feFlood flood-opacity="0" result="BackgroundImageFix"/><feBlend in="SourceGraphic" in2="BackgroundImageFix" mode="normal" result="shape"/><feGaussianBlur result="effect1_foregroundBlur" stdDeviation="30.395"/></filter><filter id="filter1_f" width="241.606" height="245.19" x="19.359" y=".015" color-interpolation-filters="sRGB" filterUnits="userSpaceOnUse"><feFlood flood-opacity="0" result="BackgroundImageFix"/><feBlend in="SourceGraphic" in2="BackgroundImageFix" mode="normal" result="shape"/><feGaussianBlur result="effect1_foregroundBlur" stdDeviation="36.306"/></filter><filter id="filter2_f" width="162.232" height="160.673" x="47.189" y="19.557" color-interpolation-filters="sRGB" filterUnits="userSpaceOnUse"><feFlood flood-opacity="0" result="BackgroundImageFix"/><feBlend in="SourceGraphic" in2="BackgroundImageFix" mode="normal" result="shape"/><feGaussianBlur result="effect1_foregroundBlur" stdDeviation="19.419"/></filter><filter id="filter3_f" width="36.256" height="49.432" x="155.417" y="46.575" color-interpolation-filters="sRGB" filterUnits="userSpaceOnUse"><feFlood flood-opacity="0" result="BackgroundImageFix"/><feBlend in="SourceGraphic" in2="BackgroundImageFix" mode="normal" result="shape"/><feGaussianBlur result="effect1_foregroundBlur" stdDeviation="3.377"/></filter><filter id="filter4_f" width="6.755" height="6.755" x="171.808" y="60.891" color-interpolation-filters="sRGB" filterUnits="userSpaceOnUse"><feFlood flood-opacity="0" result="BackgroundImageFix"/><feBlend in="SourceGraphic" in2="BackgroundImageFix" mode="normal" result="shape"/><feGaussianBlur result="effect1_foregroundBlur" stdDeviation=".844"/></filter><linearGradient id="paint0_linear" x1="67.011" x2="133.238" y1="44.632" y2="160.454" gradientUnits="userSpaceOnUse"><stop stop-color="#2EFFEA"/><stop offset="1" stop-color="#2EFFEA" stop-opacity="0"/></linearGradient><linearGradient id="paint1_linear" x1="187.748" x2="142.155" y1="183.944" y2="134.974" gradientUnits="userSpaceOnUse"><stop stop-color="#2EFFEA"/><stop offset="1" stop-color="#2EFFEA" stop-opacity="0"/></linearGradient><linearGradient id="paint2_linear" x1="53.502" x2="121.047" y1="2.416" y2="116.399" gradientUnits="userSpaceOnUse"><stop stop-color="#fff"/><stop offset="1" stop-color="#fff" stop-opacity="0"/></linearGradient></defs></svg>