<svg xmlns="http://www.w3.org/2000/svg" width="298" height="220" fill="none" viewBox="0 0 298 220"><g filter="url(#filter0_f)" opacity=".3"><ellipse cx="104.671" cy="114.775" fill="#091326" rx="66.996" ry="69.926" transform="rotate(37.3112 104.671 114.775)"/></g><g filter="url(#filter1_f)" opacity=".2"><ellipse cx="119.632" cy="109.252" fill="#303E5A" rx="53.639" ry="41.051" transform="rotate(37.3112 119.632 109.252)"/></g><circle cx="176.816" cy="77.903" r="77.903" fill="#132038" transform="rotate(90 176.816 77.9027)"/><circle cx="176.816" cy="77.903" r="77.903" fill="url(#paint0_linear)" transform="rotate(90 176.816 77.9027)"/><circle cx="176.816" cy="77.903" r="77.903" fill="url(#paint1_radial)" transform="rotate(90 176.816 77.9027)"/><circle cx="176.816" cy="77.903" r="77.903" fill="url(#paint2_radial)" transform="rotate(90 176.816 77.9027)"/><circle cx="176.816" cy="77.903" r="77.903" fill="url(#paint3_linear)" transform="rotate(90 176.816 77.9027)"/><g filter="url(#filter2_f)" opacity=".3"><ellipse cx="231.596" cy="131.483" fill="#091326" rx="22.19" ry="19.98" transform="rotate(37.3112 231.596 131.483)"/></g><g filter="url(#filter3_f)"><ellipse cx="241.051" cy="123.04" fill="#E2EBF9" fill-opacity=".4" rx="17.853" ry="20.497" transform="rotate(37.3112 241.051 123.04)"/></g><circle cx="238.34" cy="111.928" r="25.928" fill="#00E0CA" transform="rotate(90 238.34 111.928)"/><circle cx="238.34" cy="111.928" r="25.928" fill="url(#paint4_linear)" transform="rotate(90 238.34 111.928)"/><circle cx="238.34" cy="111.928" r="25.928" fill="url(#paint5_linear)" transform="rotate(90 238.34 111.928)"/><circle cx="238.34" cy="111.928" r="25.928" fill="url(#paint6_linear)" transform="rotate(90 238.34 111.928)"/><g style="mix-blend-mode:multiply" filter="url(#filter4_f)"><path fill="#00A1D3" d="M236.607 129.995C242.139 130.937 248.666 130.37 252.96 126.562C243.524 127.002 224.223 121.887 222.503 97.9002C214.95 117.2 224.783 127.981 236.607 129.995Z"/></g><g filter="url(#filter5_f)"><path fill="#C9FFFA" d="M249.668 95.9165C249.668 95.9165 252.767 96.191 255.098 99.2609C257.429 102.331 258.573 109.981 258.573 109.981C258.573 109.981 256.023 103.508 253.974 100.202C251.924 96.8972 249.668 95.9165 249.668 95.9165Z"/></g><g filter="url(#filter6_f)"><circle cx="254.763" cy="100.2" r=".661" fill="#fff" transform="rotate(17.3802 254.763 100.2)"/></g><defs><filter id="filter0_f" width="207.58" height="209.138" x=".881" y="10.205" color-interpolation-filters="sRGB" filterUnits="userSpaceOnUse"><feFlood flood-opacity="0" result="BackgroundImageFix"/><feBlend in="SourceGraphic" in2="BackgroundImageFix" mode="normal" result="shape"/><feGaussianBlur result="effect1_foregroundBlur" stdDeviation="17.85"/></filter><filter id="filter1_f" width="123.915" height="117.277" x="57.674" y="50.613" color-interpolation-filters="sRGB" filterUnits="userSpaceOnUse"><feFlood flood-opacity="0" result="BackgroundImageFix"/><feBlend in="SourceGraphic" in2="BackgroundImageFix" mode="normal" result="shape"/><feGaussianBlur result="effect1_foregroundBlur" stdDeviation="6.281"/></filter><filter id="filter2_f" width="130.919" height="130.082" x="166.137" y="66.442" color-interpolation-filters="sRGB" filterUnits="userSpaceOnUse"><feFlood flood-opacity="0" result="BackgroundImageFix"/><feBlend in="SourceGraphic" in2="BackgroundImageFix" mode="normal" result="shape"/><feGaussianBlur result="effect1_foregroundBlur" stdDeviation="17.85"/></filter><filter id="filter3_f" width="110.102" height="111.103" x="186" y="67.489" color-interpolation-filters="sRGB" filterUnits="userSpaceOnUse"><feFlood flood-opacity="0" result="BackgroundImageFix"/><feBlend in="SourceGraphic" in2="BackgroundImageFix" mode="normal" result="shape"/><feGaussianBlur result="effect1_foregroundBlur" stdDeviation="14.214"/></filter><filter id="filter4_f" width="76.748" height="69.962" x="196.214" y="82.695" color-interpolation-filters="sRGB" filterUnits="userSpaceOnUse"><feFlood flood-opacity="0" result="BackgroundImageFix"/><feBlend in="SourceGraphic" in2="BackgroundImageFix" mode="normal" result="shape"/><feGaussianBlur result="effect1_foregroundBlur" stdDeviation="7.603"/></filter><filter id="filter5_f" width="16.529" height="19.353" x="245.857" y="93.272" color-interpolation-filters="sRGB" filterUnits="userSpaceOnUse"><feFlood flood-opacity="0" result="BackgroundImageFix"/><feBlend in="SourceGraphic" in2="BackgroundImageFix" mode="normal" result="shape"/><feGaussianBlur result="effect1_foregroundBlur" stdDeviation="1.322"/></filter><filter id="filter6_f" width="2.979" height="2.979" x="253.273" y="98.71" color-interpolation-filters="sRGB" filterUnits="userSpaceOnUse"><feFlood flood-opacity="0" result="BackgroundImageFix"/><feBlend in="SourceGraphic" in2="BackgroundImageFix" mode="normal" result="shape"/><feGaussianBlur result="effect1_foregroundBlur" stdDeviation=".331"/></filter><linearGradient id="paint0_linear" x1="204.125" x2="98.913" y1="113.452" y2="-5.453" gradientUnits="userSpaceOnUse"><stop stop-color="#1C2942"/><stop offset="1" stop-color="#6D9CFF" stop-opacity="0"/></linearGradient><radialGradient id="paint1_radial" cx="0" cy="0" r="1" gradientTransform="translate(209.535 72.4495) rotate(14.7827) scale(116.02)" gradientUnits="userSpaceOnUse"><stop stop-color="#3F4D6B"/><stop offset="1" stop-color="#3D4B69" stop-opacity="0"/></radialGradient><radialGradient id="paint2_radial" cx="0" cy="0" r="1" gradientTransform="translate(298.344 218.128) rotate(-65.9387) scale(183.429)" gradientUnits="userSpaceOnUse"><stop stop-color="#76839D"/><stop offset="1" stop-color="#808CA6" stop-opacity="0"/></radialGradient><linearGradient id="paint3_linear" x1="1.548" x2="135.187" y1="-87.438" y2="90.493" gradientUnits="userSpaceOnUse"><stop stop-color="#ADB8CD"/><stop offset="1" stop-color="#fff" stop-opacity="0"/><stop offset="1" stop-color="#B2BFD3" stop-opacity="0"/></linearGradient><linearGradient id="paint4_linear" x1="212.412" x2="238.34" y1="92.512" y2="137.857" gradientUnits="userSpaceOnUse"><stop stop-color="#2EFFEA"/><stop offset="1" stop-color="#2EFFEA" stop-opacity="0"/></linearGradient><linearGradient id="paint5_linear" x1="259.681" x2="241.831" y1="147.053" y2="127.881" gradientUnits="userSpaceOnUse"><stop stop-color="#2EFFEA"/><stop offset="1" stop-color="#2EFFEA" stop-opacity="0"/></linearGradient><linearGradient id="paint6_linear" x1="207.123" x2="233.568" y1="75.984" y2="120.609" gradientUnits="userSpaceOnUse"><stop stop-color="#fff"/><stop offset="1" stop-color="#fff" stop-opacity="0"/></linearGradient></defs></svg>