<svg xmlns="http://www.w3.org/2000/svg" width="296" height="220" fill="none" viewBox="0 0 296 220"><g filter="url(#filter0_f)"><ellipse cx="104.038" cy="114.774" fill="#CFD8EE" fill-opacity=".6" rx="66.996" ry="69.926" transform="rotate(37.3112 104.038 114.774)"/></g><g filter="url(#filter1_f)"><ellipse cx="126.013" cy="118.27" fill="#E2EBF9" fill-opacity=".4" rx="53.639" ry="41.051" transform="rotate(37.3112 126.013 118.27)"/></g><circle cx="176.183" cy="77.903" r="77.903" fill="#F4F8FF" transform="rotate(90 176.183 77.9027)"/><circle cx="176.183" cy="77.903" r="77.903" fill="url(#paint0_linear)" transform="rotate(90 176.183 77.9027)"/><circle cx="176.183" cy="77.903" r="77.903" fill="url(#paint1_radial)" transform="rotate(90 176.183 77.9027)"/><circle cx="176.183" cy="77.903" r="77.903" fill="url(#paint2_radial)" transform="rotate(90 176.183 77.9027)"/><circle cx="176.183" cy="77.903" r="77.903" fill="url(#paint3_linear)" transform="rotate(90 176.183 77.9027)"/><g filter="url(#filter2_f)"><path fill="#C9D5F4" d="M199.553 130.876C215.363 125.017 231.493 113.738 236.946 97.3782C213.056 112.699 155.148 128.383 114.639 68.5542C123.98 130.118 165.762 143.4 199.553 130.876Z"/></g><g filter="url(#filter3_f)"><path fill="#fff" d="M238.157 65.6738C238.157 65.6738 244.468 72.5705 243.405 84.1027C242.341 95.6349 229.355 114.909 229.355 114.909C229.355 114.909 236.838 95.3907 239.002 83.9074C241.166 72.4241 238.157 65.6738 238.157 65.6738Z"/></g><g filter="url(#filter4_f)"><circle cx="241.025" cy="85.629" r="3.116" fill="#fff" transform="rotate(59.8581 241.025 85.6291)"/></g><g filter="url(#filter5_f)"><ellipse cx="230.922" cy="131.483" fill="#9BEAEF" rx="22.19" ry="19.98" transform="rotate(37.3112 230.922 131.483)"/></g><g filter="url(#filter6_f)"><ellipse cx="240.377" cy="123.04" fill="#E2EBF9" fill-opacity=".4" rx="17.853" ry="20.497" transform="rotate(37.3112 240.377 123.04)"/></g><circle cx="237.666" cy="111.928" r="25.928" fill="#00E0CA" transform="rotate(90 237.666 111.928)"/><circle cx="237.666" cy="111.928" r="25.928" fill="url(#paint4_linear)" transform="rotate(90 237.666 111.928)"/><circle cx="237.666" cy="111.928" r="25.928" fill="url(#paint5_linear)" transform="rotate(90 237.666 111.928)"/><circle cx="237.666" cy="111.928" r="25.928" fill="url(#paint6_linear)" transform="rotate(90 237.666 111.928)"/><g style="mix-blend-mode:multiply" filter="url(#filter7_f)"><path fill="#00A1D3" d="M235.933 129.995C241.466 130.937 247.992 130.37 252.286 126.562C242.851 127.002 223.549 121.887 221.829 97.9002C214.277 117.2 224.11 127.981 235.933 129.995Z"/></g><g filter="url(#filter8_f)"><path fill="#C9FFFA" d="M248.994 95.9165C248.994 95.9165 252.093 96.191 254.424 99.2609C256.755 102.331 257.9 109.981 257.9 109.981C257.9 109.981 255.35 103.508 253.3 100.202C251.25 96.8972 248.994 95.9165 248.994 95.9165Z"/></g><g filter="url(#filter9_f)"><circle cx="254.089" cy="100.2" r=".661" fill="#fff" transform="rotate(17.3802 254.089 100.2)"/></g><defs><filter id="filter0_f" width="207.724" height="209.282" x=".176" y="10.133" color-interpolation-filters="sRGB" filterUnits="userSpaceOnUse"><feFlood flood-opacity="0" result="BackgroundImageFix"/><feBlend in="SourceGraphic" in2="BackgroundImageFix" mode="normal" result="shape"/><feGaussianBlur result="effect1_foregroundBlur" stdDeviation="17.886"/></filter><filter id="filter1_f" width="123.966" height="117.327" x="64.03" y="59.606" color-interpolation-filters="sRGB" filterUnits="userSpaceOnUse"><feFlood flood-opacity="0" result="BackgroundImageFix"/><feBlend in="SourceGraphic" in2="BackgroundImageFix" mode="normal" result="shape"/><feGaussianBlur result="effect1_foregroundBlur" stdDeviation="6.293"/></filter><filter id="filter2_f" width="163.379" height="107.673" x="94.103" y="48.018" color-interpolation-filters="sRGB" filterUnits="userSpaceOnUse"><feFlood flood-opacity="0" result="BackgroundImageFix"/><feBlend in="SourceGraphic" in2="BackgroundImageFix" mode="normal" result="shape"/><feGaussianBlur result="effect1_foregroundBlur" stdDeviation="10.268"/></filter><filter id="filter3_f" width="26.094" height="61.159" x="223.393" y="59.712" color-interpolation-filters="sRGB" filterUnits="userSpaceOnUse"><feFlood flood-opacity="0" result="BackgroundImageFix"/><feBlend in="SourceGraphic" in2="BackgroundImageFix" mode="normal" result="shape"/><feGaussianBlur result="effect1_foregroundBlur" stdDeviation="2.981"/></filter><filter id="filter4_f" width="7.558" height="7.558" x="237.246" y="81.85" color-interpolation-filters="sRGB" filterUnits="userSpaceOnUse"><feFlood flood-opacity="0" result="BackgroundImageFix"/><feBlend in="SourceGraphic" in2="BackgroundImageFix" mode="normal" result="shape"/><feGaussianBlur result="effect1_foregroundBlur" stdDeviation=".331"/></filter><filter id="filter5_f" width="107.119" height="106.282" x="177.363" y="78.342" color-interpolation-filters="sRGB" filterUnits="userSpaceOnUse"><feFlood flood-opacity="0" result="BackgroundImageFix"/><feBlend in="SourceGraphic" in2="BackgroundImageFix" mode="normal" result="shape"/><feGaussianBlur result="effect1_foregroundBlur" stdDeviation="11.9"/></filter><filter id="filter6_f" width="110.102" height="111.103" x="185.326" y="67.489" color-interpolation-filters="sRGB" filterUnits="userSpaceOnUse"><feFlood flood-opacity="0" result="BackgroundImageFix"/><feBlend in="SourceGraphic" in2="BackgroundImageFix" mode="normal" result="shape"/><feGaussianBlur result="effect1_foregroundBlur" stdDeviation="14.214"/></filter><filter id="filter7_f" width="76.748" height="69.962" x="195.541" y="82.695" color-interpolation-filters="sRGB" filterUnits="userSpaceOnUse"><feFlood flood-opacity="0" result="BackgroundImageFix"/><feBlend in="SourceGraphic" in2="BackgroundImageFix" mode="normal" result="shape"/><feGaussianBlur result="effect1_foregroundBlur" stdDeviation="7.603"/></filter><filter id="filter8_f" width="16.529" height="19.353" x="245.183" y="93.272" color-interpolation-filters="sRGB" filterUnits="userSpaceOnUse"><feFlood flood-opacity="0" result="BackgroundImageFix"/><feBlend in="SourceGraphic" in2="BackgroundImageFix" mode="normal" result="shape"/><feGaussianBlur result="effect1_foregroundBlur" stdDeviation="1.322"/></filter><filter id="filter9_f" width="2.979" height="2.979" x="252.6" y="98.71" color-interpolation-filters="sRGB" filterUnits="userSpaceOnUse"><feFlood flood-opacity="0" result="BackgroundImageFix"/><feBlend in="SourceGraphic" in2="BackgroundImageFix" mode="normal" result="shape"/><feGaussianBlur result="effect1_foregroundBlur" stdDeviation=".331"/></filter><linearGradient id="paint0_linear" x1="182.415" x2="98.281" y1="98.157" y2="-5.453" gradientUnits="userSpaceOnUse"><stop stop-color="#D6DEF1"/><stop offset="1" stop-color="#fff" stop-opacity="0"/></linearGradient><radialGradient id="paint1_radial" cx="0" cy="0" r="1" gradientTransform="translate(208.902 72.4495) rotate(14.7827) scale(116.02)" gradientUnits="userSpaceOnUse"><stop stop-color="#CDDAF7"/><stop offset="1" stop-color="#fff" stop-opacity="0"/></radialGradient><radialGradient id="paint2_radial" cx="0" cy="0" r="1" gradientTransform="translate(297.711 218.128) rotate(-65.9387) scale(183.429)" gradientUnits="userSpaceOnUse"><stop stop-color="#fff"/><stop offset="1" stop-color="#fff" stop-opacity="0"/></radialGradient><linearGradient id="paint3_linear" x1=".915" x2="134.554" y1="-87.438" y2="90.492" gradientUnits="userSpaceOnUse"><stop stop-color="#fff"/><stop offset="1" stop-color="#fff" stop-opacity="0"/></linearGradient><linearGradient id="paint4_linear" x1="211.738" x2="237.666" y1="92.512" y2="137.857" gradientUnits="userSpaceOnUse"><stop stop-color="#2EFFEA"/><stop offset="1" stop-color="#2EFFEA" stop-opacity="0"/></linearGradient><linearGradient id="paint5_linear" x1="259.008" x2="241.158" y1="147.053" y2="127.881" gradientUnits="userSpaceOnUse"><stop stop-color="#2EFFEA"/><stop offset="1" stop-color="#2EFFEA" stop-opacity="0"/></linearGradient><linearGradient id="paint6_linear" x1="206.449" x2="232.894" y1="75.984" y2="120.609" gradientUnits="userSpaceOnUse"><stop stop-color="#fff"/><stop offset="1" stop-color="#fff" stop-opacity="0"/></linearGradient></defs></svg>