<svg xmlns="http://www.w3.org/2000/svg" width="24" height="24" fill="none" viewBox="0 0 24 24"><rect width="22" height="22" x="1" y="1" stroke="currentColor" stroke-width="2" rx="5"/><path stroke="currentColor" stroke-width="2" d="M12 8.71973C12 8.16744 12.4477 7.71973 13 7.71973H22C22.5523 7.71973 23 8.16744 23 8.71973V15.2797C23 15.832 22.5523 16.2797 22 16.2797H13C12.4477 16.2797 12 15.832 12 15.2797V8.71973Z"/><mask id="path-3-inside-1" fill="#fff"><ellipse cx="16.563" cy="12.06" rx="1.563" ry="1.5"/></mask><ellipse cx="16.563" cy="12.06" fill="#485776" rx="1.563" ry="1.5"/><path fill="currentColor" d="M16.125 12.0596C16.125 11.7073 16.3986 11.5596 16.5625 11.5596V15.5596C18.4523 15.5596 20.125 14.0687 20.125 12.0596H16.125ZM16.5625 11.5596C16.7264 11.5596 17 11.7073 17 12.0596H13C13 14.0687 14.6727 15.5596 16.5625 15.5596V11.5596ZM17 12.0596C17 12.4119 16.7264 12.5596 16.5625 12.5596V8.55957C14.6727 8.55957 13 10.0504 13 12.0596H17ZM16.5625 12.5596C16.3986 12.5596 16.125 12.4119 16.125 12.0596H20.125C20.125 10.0504 18.4523 8.5595716.5625 8.55957V12.5596Z" mask="url(#path-3-inside-1)"/></svg>