<svg xmlns="http://www.w3.org/2000/svg" width="24" height="24" fill="none" viewBox="0 0 24 24"><ellipse cx="6.816" cy="6" fill="currentColor" rx="2" ry="2" transform="rotate(90 6.81641 6)"/><ellipse cx="17.816" cy="6" fill="currentColor" rx="2" ry="2" transform="rotate(90 17.8164 6)"/><ellipse cx="11.816" cy="22" fill="currentColor" rx="2" ry="2" transform="rotate(90 11.8164 22)"/><rect width="8.842" height="2" x="2" y="15.158" fill="currentColor" rx="1" transform="rotate(90 2 15.1582)"/><rect width="9" height="2" x="21.816" y="24" fill="currentColor" rx="1" transform="rotate(-90 21.8164 24)"/><rect width="17.684" height="2" x="7.82" y="6" fill="currentColor" rx="1" transform="rotate(90 7.82031 6)"/><rect width="18" height="2" x="16.816" y="24" fill="currentColor" rx="1" transform="rotate(-90 16.8164 24)"/><rect width="24" height="2" x="10.82" y="24" fill="currentColor" rx="1" transform="rotate(-90 10.8203 24)"/></svg>