<svg xmlns="http://www.w3.org/2000/svg" width="19" height="17" fill="none" viewBox="0 0 19 17"><rect width="3" height="2.792" fill="#fff" rx="1.396" transform="matrix(-1 0 0 1 19 7.22266)"/><rect width="3" height="2.792" fill="#fff" rx="1.396" transform="matrix(-1 0 0 1 19 0.708984)"/><rect width="3" height="2.792" fill="#fff" rx="1.396" transform="matrix(-1 0 0 1 3 13.7373)"/><rect width="3" height="2.792" fill="#fff" rx="1.396" transform="matrix(-1 0 0 1 11 7.22266)"/><rect width="3" height="2.792" fill="#fff" rx="1.396" transform="matrix(-1 0 0 1 11 0.708984)"/><rect width="3" height="2.792" fill="#fff" rx="1.396" transform="matrix(-1 0 0 1 3 0.708984)"/><rect width="3" height="2.792" fill="#fff" rx="1.396" transform="matrix(-1 0 0 1 19 13.7373)"/><rect width="3" height="2.792" fill="#fff" rx="1.396" transform="matrix(-1 0 0 1 11 13.7373)"/><rect width="3" height="2.792" fill="#fff" rx="1.396" transform="matrix(-1 0 0 1 3 7.22266)"/></svg>